<?xml version="1.0" encoding="utf-8"?>
<svg viewBox="1.0853 543.1292 717.9147 285.7474" xmlns="http://www.w3.org/2000/svg">
  <g fill="rgb(22 163 74)" transform="matrix(1, 0, 0, 1, -5.684341886080802e-14, 0)">
    <path d="M72.5 828.4 c-21 -1.9 -40.4 -10.1 -51.1 -21.5 -4.8 -5.1 -11.8 -16.6 -14.4 -23.7 -5.4 -14.7 -5.3 -13.5 -5.7 -90.1 -0.5 -79.6 -0.7 -76.9 6.2 -83 10 -8.8 25.1 -5.6 30.6 6.4 1.7 3.8 1.9 8 1.9 71.5 0 72.4 0.2 75.8 5.2 85.7 4.9 9.9 15.5 15.1 32.7 16 23.1 1.4 38.6 -6.1 43.5 -20.9 2.3 -7 3.5 -25.1 3.5 -52.8 0.1 -37.3 -1.5 -49.7 -7.5 -59.2 -2.5 -3.9 -8.4 -8.3 -12.8 -9.4 l-2.6 -0.6 0 50.6 c0 34.1 -0.4 52.2 -1.1 55.2 -2.1 8.3 -10.4 14.4 -19.7 14.4 -6.3 0 -14.8 -6.1 -17.1 -12.3 -0.7 -1.9 -1.1 -24.7 -1.1 -68.9 0 -65.4 0 -66.2 2.1 -70.6 2.8 -5.7 8.4 -9.4 15.3 -10 14.3 -1.2 38.2 4.2 49.1 11.1 11.6 7.3 22.4 20.1 27.2 32.1 5.2 13.2 6.3 22.3 6.3 53.1 l0 28.4 5.5 1.1 c3 0.6 8.2 2.2 11.5 3.5 l6 2.3 0.2 -58.6 c0.3 -57.3 0.3 -58.8 2.4 -62.7 4.6 -8.8 16.6 -13 25 -8.7 4.9 2.5 7.9 5.7 9.9 10.4 1.3 3.3 1.5 15.4 1.5 100.3 0 106.3 0.4 100.3 -6.3 106.2 -9.2 8.1 -22.6 6.4 -29.3 -3.6 -2.2 -3.4 -2.8 -5.7 -3.5 -14.3 -1.6 -20.7 -5.8 -28.6 -17.6 -34 -3.4 -1.5 -6.4 -2.8 -6.7 -2.8 -0.2 0 -0.7 1.7 -1 3.8 -1.1 5.9 -5.6 17.2 -9.4 23.2 -9.7 15.5 -26.8 26.8 -45.7 30.5 -7.5 1.4 -26.4 2.5 -33 1.9z"/>
    <path d="M261.5 827.8 c-4.9 -1.7 -9.2 -5.5 -11.4 -10.1 -2.1 -4.3 -2.1 -4.8 -2.1 -100.8 0 -91.6 0.1 -96.6 1.9 -100.4 7.4 -16.1 31.4 -14.6 36.1 2.3 1.5 5.7 1.4 191.2 -0.2 196.6 -2.9 9.7 -14.7 15.7 -24.3 12.4z"/>
    <path d="M380.5 828.3 c-31.4 -2.2 -54.9 -18.6 -64.9 -45.4 -5 -13.4 -5.6 -19.9 -5.6 -62.6 0 -37.3 0.1 -39.6 2 -43.3 2.4 -4.7 7.1 -8.4 12.5 -9.9 2.7 -0.7 21.6 -1.1 56.3 -1.1 l52.2 0 0 -11 0 -11 -52.2 0 c-34.7 0 -53.6 -0.4 -56.3 -1.1 -11.4 -3.1 -17.7 -15.6 -13.1 -26.2 1.8 -4.1 7.2 -9.1 11.5 -10.6 5.4 -1.8 133.1 -1.5 137.4 0.3 3.9 1.7 9.2 7.1 10.6 10.9 0.8 1.9 1.1 33.7 1.1 99.5 0 91.9 -0.1 96.9 -1.9 100.7 -2.2 4.8 -5.4 7.9 -10.3 10 -3.2 1.3 -9.1 1.5 -39 1.3 -19.4 -0.1 -37.5 -0.3 -40.3 -0.5z m52.5 -80.3 l0 -42 -42.1 0 -42 0 0.3 28.8 c0.3 27.4 0.5 29 2.7 34.6 4.2 10.5 11.6 16.4 24 19.2 3.5 0.7 15.1 1.2 31.4 1.3 l25.7 0.1 0 -42z"/>
    <path d="M506.5 827.1 c-4.8 -2.2 -7.9 -5.4 -10 -10.3 -1.3 -3.3 -1.5 -15.3 -1.5 -99.7 0 -62.2 -0.4 -98.6 -1.1 -103.6 -1.8 -13.3 -6.7 -21.8 -14.7 -25.9 -10.6 -5.4 4.1 -5 -238.2 -5.6 l-225.5 -0.5 -4 -2.1 c-2.2 -1.1 -5.3 -4 -7 -6.3 -2.6 -3.7 -3 -5.2 -3 -10.6 0 -5.4 0.4 -6.9 3 -10.6 1.7 -2.3 4.8 -5.2 7 -6.3 l4 -2.1 225.5 0 c245.9 0 231.3 -0.3 247.5 5.8 9.8 3.7 15.1 7.1 23.3 15.1 10.2 9.9 16.3 21.4 19.9 37.9 1.7 7.6 1.8 15.5 1.8 110.2 l0 102 -2.4 4.2 c-2.8 4.9 -6.4 7.7 -11.7 9.2 -5.4 1.5 -8.3 1.3 -12.9 -0.8z"/>
    <path d="M569.5 827.8 c-4.3 -1.6 -7.7 -4.4 -10.2 -8.6 l-2.3 -3.7 0 -98.6 0 -98.5 2.9 -4.6 c5.6 -8.8 0.9 -8.3 75.6 -8.6 45.2 -0.2 67.2 0 69.7 0.8 7.3 2.1 13.7 10.2 13.8 17.4 0 8.3 -6.7 17.3 -14.6 19.5 -2.6 0.7 -22.2 1.1 -56.4 1.1 l-52.6 0 0.1 71.5 c0 79.2 -0.5 73.6 6.5 69.4 8.2 -4.9 12 -10.4 14.5 -21.1 1.2 -5 1.5 -14.1 1.5 -42.8 0 -23.6 0.4 -37.9 1.1 -40.5 1.4 -5 8.2 -11.9 13.1 -13.3 3.9 -1.1 19.1 -0.2 28.9 1.7 23.5 4.6 42.9 20.4 51.3 41.8 5.7 14.7 6.1 18.3 6.1 63.5 l0 41.6 -3 4.3 c-7.9 11.2 -24 11.2 -32 0 l-3 -4.3 -0.6 -40.6 c-0.3 -22.4 -1 -42.3 -1.6 -44.2 -3 -10.6 -9 -18.2 -16.9 -21.5 -2 -0.8 -3.8 -1.5 -4 -1.5 -0.2 0 -0.4 11.2 -0.4 24.8 0 27.9 -1.3 38.7 -6.1 51.2 -10 26.1 -30.7 40.8 -61.8 44 -12.4 1.2 -15.7 1.2 -19.6 -0.2z"/>
    <path d="M568.5 580.1 c-14.7 -6.7 -15.5 -26.3 -1.4 -34.6 3.3 -1.9 5.5 -2 68.4 -2.3 48.6 -0.2 66.1 0 69.4 0.9 5.9 1.7 11.6 7.2 13.1 12.8 2.4 9.1 -1.7 18.7 -9.6 22.7 -3.7 1.8 -7.1 1.9 -69.9 2.1 -62.2 0.3 -66.2 0.2 -70 -1.6z"/>
  </g>
</svg>